<?xml version="1.0"?>
<svg xmlns="http://www.w3.org/2000/svg" width="512" height="512" viewBox="0 0 128 128">
    <path d="M93.7,114.633H91.779L88.325,86.694A44.8,44.8,0,0,0,77.867,6.443l2.56-3.7A1.749,1.749,0,0,0,78.988,0H49.012a1.749,1.749,0,0,0-1.439,2.746l2.56,3.7A44.8,44.8,0,0,0,39.675,86.694l-3.454,27.939H34.3a11.071,11.071,0,0,0-11.059,11.059v.555a1.75,1.75,0,0,0,1.75,1.75h78.012a1.75,1.75,0,0,0,1.75-1.75v-.555A11.071,11.071,0,0,0,93.7,114.633Zm-51.189-41.6L58.152,57.392a10.116,10.116,0,0,0,4.1,1.7V81.23A32.077,32.077,0,0,1,42.508,73.036ZM31.839,50.819H53.978a10.13,10.13,0,0,0,1.7,4.1L40.033,70.561A32.083,32.083,0,0,1,31.839,50.819Zm38.844-1.75A6.683,6.683,0,1,1,64,42.386,6.691,6.691,0,0,1,70.683,49.069ZM62.25,23.949v15.1a10.116,10.116,0,0,0-4.1,1.7L42.471,25.065a32.115,32.115,0,0,1,15.294-7.6ZM39.99,27.534,55.677,43.221a10.13,10.13,0,0,0-1.7,4.1H31.841A32.091,32.091,0,0,1,39.99,27.534ZM65.75,59.091a10.116,10.116,0,0,0,4.1-1.7L85.492,73.036A32.077,32.077,0,0,1,65.75,81.23Zm22.217,11.47L72.323,54.917a10.13,10.13,0,0,0,1.7-4.1H96.161A32.083,32.083,0,0,1,87.967,70.561ZM74.022,47.319a10.13,10.13,0,0,0-1.7-4.1L88.01,27.534a32.091,32.091,0,0,1,8.149,19.785Zm-4.174-6.572a10.116,10.116,0,0,0-4.1-1.7v-15.1l4.485-6.479a32.115,32.115,0,0,1,15.294,7.6Zm5.8-37.25L68,14.553h0l-4,5.775-4-5.775h0L52.351,3.5ZM22.672,49.069A41.356,41.356,0,0,1,52.216,9.452l3.4,4.912a35.68,35.68,0,0,0-17,59.789,1.1,1.1,0,0,0,.3.3,35.637,35.637,0,0,0,50.168,0,1.1,1.1,0,0,0,.3-.3,35.68,35.68,0,0,0-17-59.789l3.4-4.912A41.33,41.33,0,1,1,22.672,49.069ZM42.961,88.638a44.714,44.714,0,0,0,42.078,0l3.214,25.995H80.4V103.071a1.75,1.75,0,0,0-1.75-1.75H49.354a1.75,1.75,0,0,0-1.75,1.75v11.562H39.747ZM76.9,114.633H51.1v-9.812H76.9ZM26.838,124.5a7.573,7.573,0,0,1,7.465-6.364H93.7a7.573,7.573,0,0,1,7.465,6.364Z"/>
</svg>
