<?xml version="1.0" encoding="UTF-8" standalone="no"?>
<!DOCTYPE svg PUBLIC "-//W3C//DTD SVG 1.1//EN" "http://www.w3.org/Graphics/SVG/1.1/DTD/svg11.dtd">
<svg version="1.1" xmlns="http://www.w3.org/2000/svg" xmlns:xlink="http://www.w3.org/1999/xlink" preserveAspectRatio="xMidYMid meet" viewBox="0 0 640 640" width="64" height="64"><defs><path d="M224.15 250.51L227.01 250.82L229.85 251.25L232.64 251.8L235.4 252.47L238.12 253.25L240.79 254.14L243.41 255.14L245.99 256.24L248.52 257.45L250.99 258.76L253.41 260.16L255.77 261.66L258.07 263.26L260.31 264.95L262.48 266.72L264.59 268.59L266.62 270.53L268.59 272.56L270.48 274.66L272.3 276.85L274.04 279.1L275.7 281.43L277.27 283.83L278.76 286.29L280.16 288.82L281.48 291.41L282.7 294.06L283.83 296.76L284.86 299.52L285.79 302.33L286.62 305.19L287.35 308.1L287.97 311.05L288.48 314.05L288.89 317.08L289.18 320.15L289.35 323.26L289.41 326.4L289.35 329.54L289.18 332.64L288.89 335.71L288.48 338.75L287.97 341.74L287.35 344.7L286.62 347.6L285.79 350.46L284.86 353.28L283.83 356.04L282.7 358.74L281.48 361.39L280.16 363.98L278.76 366.51L277.27 368.97L275.7 371.37L274.04 373.69L272.3 375.95L270.48 378.13L268.59 380.24L266.62 382.26L264.59 384.21L262.48 386.07L260.31 387.85L258.07 389.54L255.77 391.13L253.41 392.63L250.99 394.04L248.52 395.35L245.99 396.56L243.41 397.66L240.79 398.66L238.12 399.55L235.4 400.33L232.64 400.99L229.85 401.54L227.01 401.97L224.15 402.29L221.25 402.48L218.32 402.54L215.38 402.48L212.48 402.29L209.62 401.97L206.78 401.54L203.99 400.99L201.23 400.33L198.51 399.55L195.84 398.66L193.22 397.66L190.64 396.56L188.11 395.35L185.64 394.04L183.22 392.63L180.86 391.13L178.56 389.54L176.33 387.85L174.15 386.07L172.05 384.21L170.01 382.26L168.04 380.24L166.15 378.13L164.33 375.95L162.59 373.69L160.93 371.37L159.36 368.97L157.87 366.51L156.47 363.98L155.15 361.39L153.93 358.74L152.8 356.04L151.77 353.28L150.84 350.46L150.01 347.6L149.28 344.7L148.66 341.74L148.15 338.75L147.74 335.71L147.45 332.64L147.28 329.54L147.22 326.4L147.28 323.26L147.45 320.15L147.74 317.08L148.15 314.05L148.66 311.05L149.28 308.1L150.01 305.19L150.84 302.33L151.77 299.52L152.8 296.76L153.93 294.06L155.15 291.41L156.47 288.82L157.87 286.29L159.36 283.83L160.93 281.43L162.59 279.1L164.33 276.85L166.15 274.66L168.04 272.56L170.01 270.53L172.05 268.59L174.15 266.72L176.33 264.95L178.56 263.26L180.86 261.66L183.22 260.16L185.64 258.76L188.11 257.45L190.64 256.24L193.22 255.14L195.84 254.14L198.51 253.25L201.23 252.47L203.99 251.8L206.78 251.25L209.62 250.82L212.48 250.51L215.38 250.32L218.32 250.26L221.25 250.32L224.15 250.51ZM216.86 288.55L215.41 288.64L213.98 288.8L212.57 289.01L211.18 289.29L209.8 289.62L208.45 290L207.12 290.45L205.81 290.94L204.52 291.49L203.26 292.09L202.03 292.74L200.82 293.44L199.64 294.19L198.5 294.98L197.38 295.82L196.29 296.7L195.24 297.63L194.22 298.59L193.24 299.6L192.3 300.65L191.39 301.73L190.52 302.86L189.69 304.01L188.9 305.21L188.15 306.43L187.45 307.69L186.79 308.98L186.18 310.29L185.61 311.64L185.09 313.01L184.62 314.41L184.2 315.84L183.84 317.28L183.52 318.75L183.26 320.25L183.05 321.76L182.9 323.29L182.8 324.83L182.77 326.4L182.8 327.97L182.88 329.52L183.03 331.06L183.23 332.57L183.49 334.07L183.8 335.55L184.16 337L184.58 338.43L185.04 339.84L185.56 341.22L186.12 342.57L186.73 343.89L187.39 345.19L188.09 346.45L188.84 347.68L189.62 348.88L190.45 350.05L191.32 351.17L192.23 352.27L193.18 353.32L194.16 354.33L195.18 355.3L196.23 356.24L197.32 357.12L198.44 357.97L199.59 358.76L200.77 359.52L201.98 360.22L203.21 360.87L204.48 361.48L205.77 362.03L207.08 362.53L208.41 362.97L209.77 363.36L211.15 363.69L212.55 363.97L213.97 364.19L215.4 364.34L216.85 364.44L218.32 364.47L219.78 364.44L221.23 364.34L222.67 364.19L224.08 363.97L225.48 363.69L226.86 363.36L228.22 362.97L229.55 362.53L230.86 362.03L232.15 361.48L233.42 360.87L234.65 360.22L235.86 359.52L237.04 358.76L238.19 357.97L239.31 357.12L240.4 356.24L241.45 355.3L242.47 354.33L243.45 353.32L244.4 352.27L245.31 351.17L246.18 350.05L247.01 348.88L247.79 347.68L248.54 346.45L249.24 345.19L249.9 343.89L250.51 342.57L251.07 341.22L251.59 339.84L252.05 338.43L252.47 337L252.83 335.55L253.14 334.07L253.4 332.57L253.6 331.06L253.75 329.52L253.83 327.97L253.86 326.4L253.83 324.83L253.75 323.28L253.6 321.74L253.4 320.22L253.14 318.72L252.83 317.25L252.47 315.79L252.05 314.36L251.59 312.96L251.07 311.58L250.51 310.23L249.9 308.9L249.24 307.61L248.54 306.34L247.79 305.11L247.01 303.91L246.18 302.75L245.31 301.62L244.4 300.53L243.45 299.48L242.47 298.46L241.45 297.49L240.4 296.56L239.31 295.67L238.19 294.83L237.04 294.03L235.86 293.28L234.65 292.58L233.42 291.92L232.15 291.32L230.86 290.77L229.55 290.27L228.22 289.82L226.86 289.43L225.48 289.1L224.08 288.83L222.67 288.61L221.23 288.45L219.78 288.36L218.32 288.33L218.32 288.52L216.86 288.55Z" id="kDHHn0Djm"></path><path d="M427.49 250.51L430.36 250.82L433.19 251.25L435.99 251.8L438.74 252.47L441.46 253.25L444.13 254.14L446.75 255.14L449.33 256.24L451.86 257.45L454.33 258.76L456.75 260.16L459.11 261.66L461.41 263.26L463.65 264.95L465.82 266.72L467.93 268.59L469.96 270.53L471.93 272.56L473.82 274.66L475.64 276.85L477.38 279.1L479.04 281.43L480.61 283.83L482.1 286.29L483.51 288.82L484.82 291.41L486.04 294.06L487.17 296.76L488.2 299.52L489.13 302.33L489.96 305.19L490.69 308.1L491.31 311.05L491.83 314.05L492.23 317.08L492.52 320.15L492.7 323.26L492.76 326.4L492.7 329.54L492.52 332.64L492.23 335.71L491.83 338.75L491.31 341.74L490.69 344.7L489.96 347.6L489.13 350.46L488.2 353.28L487.17 356.04L486.04 358.74L484.82 361.39L483.51 363.98L482.1 366.51L480.61 368.97L479.04 371.37L477.38 373.69L475.64 375.95L473.82 378.13L471.93 380.24L469.96 382.26L467.93 384.21L465.82 386.07L463.65 387.85L461.41 389.54L459.11 391.13L456.75 392.63L454.33 394.04L451.86 395.35L449.33 396.56L446.75 397.66L444.13 398.66L441.46 399.55L438.74 400.33L435.99 400.99L433.19 401.54L430.36 401.97L427.49 402.29L424.59 402.48L421.66 402.54L418.73 402.48L415.83 402.29L412.96 401.97L410.12 401.54L407.33 400.99L404.57 400.33L401.86 399.55L399.18 398.66L396.56 397.66L393.98 396.56L391.46 395.35L388.98 394.04L386.57 392.63L384.21 391.13L381.91 389.54L379.67 387.85L377.49 386.07L375.39 384.21L373.35 382.26L371.38 380.24L369.49 378.13L367.67 375.95L365.93 373.69L364.28 371.37L362.7 368.97L361.21 366.51L359.81 363.98L358.49 361.39L357.27 358.74L356.15 356.04L355.12 353.28L354.18 350.46L353.35 347.6L352.62 344.7L352 341.74L351.49 338.75L351.09 335.71L350.79 332.64L350.62 329.54L350.56 326.4L350.62 323.26L350.79 320.15L351.09 317.08L351.49 314.05L352 311.05L352.62 308.1L353.35 305.19L354.18 302.33L355.12 299.52L356.15 296.76L357.27 294.06L358.49 291.41L359.81 288.82L361.21 286.29L362.7 283.83L364.28 281.43L365.93 279.1L367.67 276.85L369.49 274.66L371.38 272.56L373.35 270.53L375.39 268.59L377.49 266.72L379.67 264.95L381.91 263.26L384.21 261.66L386.57 260.16L388.98 258.76L391.46 257.45L393.98 256.24L396.56 255.14L399.18 254.14L401.86 253.25L404.57 252.47L407.33 251.8L410.12 251.25L412.96 250.82L415.83 250.51L418.73 250.32L421.66 250.26L424.59 250.32L427.49 250.51ZM420.2 288.55L418.75 288.64L417.32 288.8L415.91 289.01L414.52 289.29L413.14 289.62L411.79 290L410.46 290.45L409.15 290.94L407.86 291.49L406.6 292.09L405.37 292.74L404.16 293.44L402.99 294.19L401.84 294.98L400.72 295.82L399.64 296.7L398.58 297.63L397.57 298.59L396.58 299.6L395.64 300.65L394.73 301.73L393.86 302.86L393.03 304.01L392.24 305.21L391.49 306.43L390.79 307.69L390.13 308.98L389.52 310.29L388.95 311.64L388.43 313.01L387.96 314.41L387.54 315.84L387.18 317.28L386.86 318.75L386.6 320.25L386.39 321.76L386.24 323.29L386.14 324.83L386.11 326.4L386.14 327.97L386.23 329.52L386.37 331.06L386.57 332.57L386.83 334.07L387.14 335.55L387.5 337L387.92 338.43L388.39 339.84L388.9 341.22L389.46 342.57L390.08 343.89L390.73 345.19L391.43 346.45L392.18 347.68L392.97 348.88L393.8 350.05L394.66 351.17L395.57 352.27L396.52 353.32L397.5 354.33L398.52 355.3L399.57 356.24L400.66 357.12L401.78 357.97L402.93 358.76L404.11 359.52L405.32 360.22L406.56 360.87L407.82 361.48L409.11 362.03L410.42 362.53L411.76 362.97L413.11 363.36L414.49 363.69L415.89 363.97L417.31 364.19L418.74 364.34L420.19 364.44L421.66 364.47L423.12 364.44L424.57 364.34L426.01 364.19L427.42 363.97L428.82 363.69L430.2 363.36L431.56 362.97L432.89 362.53L434.21 362.03L435.49 361.48L436.76 360.87L437.99 360.22L439.2 359.52L440.38 358.76L441.53 357.97L442.65 357.12L443.74 356.24L444.79 355.3L445.81 354.33L446.79 353.32L447.74 352.27L448.65 351.17L449.52 350.05L450.35 348.88L451.14 347.68L451.88 346.45L452.58 345.19L453.24 343.89L453.85 342.57L454.41 341.22L454.93 339.84L455.39 338.43L455.81 337L456.17 335.55L456.48 334.07L456.74 332.57L456.94 331.06L457.09 329.52L457.18 327.97L457.21 326.4L457.18 324.83L457.09 323.28L456.94 321.74L456.74 320.22L456.48 318.72L456.17 317.25L455.81 315.79L455.39 314.36L454.93 312.96L454.41 311.58L453.85 310.23L453.24 308.9L452.58 307.61L451.88 306.34L451.14 305.11L450.35 303.91L449.52 302.75L448.65 301.62L447.74 300.53L446.79 299.48L445.81 298.46L444.79 297.49L443.74 296.56L442.65 295.67L441.53 294.83L440.38 294.03L439.2 293.28L437.99 292.58L436.76 291.92L435.49 291.32L434.21 290.77L432.89 290.27L431.56 289.82L430.2 289.43L428.82 289.1L427.42 288.83L426.01 288.61L424.57 288.45L423.12 288.36L421.66 288.33L421.66 288.52L420.2 288.55Z" id="eMuHECvMB"></path><path d="M325.59 0.28L327.87 0.56L330.14 0.94L332.39 1.41L334.62 1.97L336.81 2.62L338.99 3.36L341.13 4.19L343.23 5.11L345.31 6.11L347.34 7.19L349.34 8.35L351.29 9.6L353.19 10.93L355.05 12.33L356.87 13.81L358.62 15.37L360.33 17L361.98 18.71L363.56 20.48L365.09 22.33L366.55 24.24L367.95 26.23L369.28 28.28L370.53 30.39L371.72 32.57L372.82 34.81L373.85 37.11L374.8 39.47L375.67 41.89L376.45 44.37L377.13 46.87L377.72 49.39L378.2 51.91L378.59 54.42L378.88 56.94L379.08 59.45L379.18 61.95L379.19 64.45L379.1 66.93L378.93 69.4L378.66 71.85L378.31 74.28L377.87 76.68L377.35 79.07L376.74 81.42L376.05 83.75L375.28 86.04L374.42 88.3L373.49 90.51L372.48 92.69L371.39 94.83L370.23 96.92L368.99 98.96L367.68 100.96L366.29 102.89L364.84 104.78L363.32 106.6L361.72 108.37L360.07 110.07L358.34 111.7L356.55 113.27L354.7 114.76L352.79 116.19L350.81 117.53L348.78 118.8L346.69 119.98L344.54 121.09L342.33 122.1L340.08 123.03L337.76 123.86L337.76 165.74L440.86 165.74L445.88 165.81L450.79 166.03L455.56 166.39L460.21 166.9L464.74 167.53L469.15 168.3L473.43 169.2L477.6 170.23L481.64 171.38L485.57 172.65L489.38 174.04L493.08 175.55L496.66 177.16L500.13 178.89L503.48 180.72L506.73 182.65L509.86 184.68L512.89 186.81L515.81 189.03L518.62 191.34L521.33 193.74L523.93 196.22L526.43 198.79L528.83 201.43L531.12 204.15L533.32 206.93L535.42 209.79L537.42 212.71L539.33 215.7L541.14 218.74L542.85 221.84L544.48 225L546.01 228.2L547.45 231.45L548.8 234.75L550.07 238.08L551.24 241.46L552.33 244.87L553.34 248.31L554.26 251.78L557.43 252.29L560.57 252.91L563.67 253.64L566.74 254.47L569.76 255.39L572.75 256.42L575.69 257.54L578.59 258.76L581.45 260.07L584.26 261.47L587.02 262.97L589.73 264.55L592.39 266.22L594.99 267.98L597.54 269.81L600.03 271.73L602.46 273.73L604.84 275.81L607.15 277.96L609.39 280.19L611.57 282.5L613.69 284.87L615.74 287.31L617.71 289.83L619.62 292.41L621.45 295.05L623.2 297.75L624.88 300.52L626.48 303.35L628 306.23L629.43 309.17L630.79 312.17L632.06 315.22L633.24 318.32L634.33 321.47L635.33 324.66L636.24 327.9L637.06 331.19L637.78 334.52L638.4 337.89L639.05 342.2L639.53 346.51L639.85 350.79L640 355.06L639.99 359.3L639.83 363.51L639.51 367.69L639.03 371.83L638.41 375.93L637.64 379.98L636.72 383.99L635.67 387.94L634.47 391.84L633.14 395.68L631.67 399.45L630.07 403.15L628.33 406.79L626.48 410.34L624.5 413.81L622.39 417.2L620.17 420.51L617.83 423.72L615.38 426.83L612.81 429.84L610.14 432.75L607.36 435.55L604.47 438.24L601.49 440.81L598.4 443.26L595.22 445.59L591.95 447.79L588.59 449.86L585.13 451.79L581.59 453.58L577.97 455.23L574.27 456.73L570.49 458.07L566.63 459.27L562.7 460.3L558.7 461.17L558.34 465.45L557.87 469.73L557.29 473.99L556.6 478.24L555.8 482.47L554.87 486.67L553.83 490.84L552.67 494.97L551.39 499.06L549.99 503.1L548.46 507.09L546.8 511.02L545.01 514.89L543.09 518.68L541.04 522.4L538.85 526.04L536.52 529.59L534.06 533.06L531.45 536.42L528.71 539.69L525.81 542.85L522.78 545.89L519.59 548.82L516.25 551.62L512.76 554.3L509.12 556.84L505.32 559.24L501.36 561.5L497.24 563.61L492.96 565.56L488.52 567.36L483.91 568.98L479.14 570.44L474.19 571.72L469.07 572.81L463.78 573.72L458.32 574.44L452.68 574.96L446.86 575.27L440.86 575.38L199.12 575.38L195.02 575.32L190.92 575.15L186.81 574.85L182.71 574.44L178.61 573.9L174.53 573.24L170.46 572.44L166.42 571.52L162.41 570.47L158.44 569.28L154.5 567.96L150.61 566.5L146.77 564.9L142.98 563.16L139.26 561.28L135.6 559.24L132.01 557.06L128.5 554.73L125.08 552.25L121.73 549.61L118.49 546.82L115.33 543.86L112.29 540.75L109.34 537.47L106.52 534.03L103.81 530.42L101.22 526.64L98.77 522.69L96.45 518.57L94.26 514.27L92.23 509.79L90.34 505.13L88.61 500.3L87.04 495.27L85.63 490.07L84.4 484.67L83.34 479.09L82.46 473.31L81.77 467.34L81.28 461.17L81.45 460.22L78.31 459.55L75.2 458.79L72.13 457.92L69.1 456.95L66.12 455.88L63.18 454.72L60.28 453.46L57.43 452.1L54.64 450.66L51.89 449.13L49.19 447.5L46.55 445.8L43.97 444.01L41.44 442.13L38.97 440.18L36.56 438.14L34.21 436.03L31.92 433.85L29.7 431.59L27.55 429.26L25.46 426.85L23.45 424.39L21.51 421.85L19.63 419.25L17.84 416.58L16.12 413.86L14.48 411.08L12.91 408.23L11.43 405.34L10.03 402.38L8.71 399.38L7.48 396.33L6.34 393.22L5.29 390.07L4.32 386.88L3.45 383.64L2.68 380.36L1.99 377.04L1.41 373.68L0.92 370.29L0.45 365.95L0.14 361.63L0 357.33L0.02 353.06L0.2 348.83L0.54 344.63L1.02 340.47L1.67 336.35L2.45 332.28L3.39 328.27L4.46 324.31L5.68 320.41L7.03 316.57L8.52 312.8L10.14 309.1L11.89 305.47L13.77 301.92L15.77 298.46L17.89 295.08L20.13 291.79L22.48 288.59L24.95 285.5L27.53 282.5L30.21 279.61L33 276.83L35.89 274.16L38.88 271.61L41.97 269.18L45.15 266.87L48.42 264.7L51.78 262.65L55.23 260.74L58.75 258.97L62.36 257.35L66.05 255.87L69.81 254.54L73.64 253.37L77.54 252.36L81.51 251.51L85.54 250.83L86.75 246.22L88.09 241.75L89.56 237.43L91.15 233.25L92.85 229.2L94.67 225.3L96.6 221.54L98.63 217.9L100.78 214.41L103.02 211.04L105.35 207.81L107.78 204.71L110.3 201.74L112.91 198.89L115.6 196.17L118.37 193.57L121.21 191.1L124.12 188.74L127.11 186.51L130.16 184.39L133.26 182.4L136.43 180.52L139.65 178.75L142.93 177.09L146.25 175.55L149.61 174.12L153.01 172.79L156.45 171.57L159.92 170.46L163.43 169.45L166.96 168.55L170.51 167.74L174.08 167.04L177.66 166.43L181.26 165.92L184.86 165.51L188.47 165.19L192.09 164.97L195.7 164.83L199.3 164.79L302.21 164.79L302.21 123.86L300.84 123.38L299.48 122.86L298.13 122.31L296.81 121.73L295.5 121.11L294.2 120.46L292.93 119.78L291.67 119.06L290.43 118.32L289.21 117.54L288.01 116.74L286.83 115.91L285.66 115.04L284.52 114.15L283.4 113.23L282.31 112.28L281.23 111.31L280.18 110.31L279.14 109.28L278.14 108.22L277.15 107.14L276.19 106.04L275.26 104.91L274.35 103.76L273.46 102.58L272.6 101.38L271.77 100.16L270.96 98.92L270.18 97.65L269.43 96.37L268.71 95.06L268.01 93.73L267.35 92.38L266.71 91.02L266.1 89.63L265.53 88.23L264.98 86.81L264.47 85.37L263.98 83.91L263.53 82.44L262.85 79.93L262.26 77.42L261.78 74.9L261.39 72.38L261.1 69.87L260.9 67.35L260.8 64.85L260.79 62.36L260.87 59.87L261.05 57.41L261.31 54.96L261.66 52.53L262.1 50.12L262.63 47.74L263.23 45.38L263.93 43.06L264.7 40.77L265.55 38.51L266.49 36.29L267.5 34.11L268.59 31.97L269.75 29.88L270.99 27.84L272.3 25.85L273.68 23.91L275.14 22.03L276.66 20.2L278.25 18.44L279.91 16.74L281.63 15.1L283.42 13.54L285.27 12.04L287.19 10.62L289.16 9.27L291.2 8.01L293.29 6.82L295.44 5.72L297.64 4.7L299.9 3.78L302.21 2.94L304.56 2.21L306.9 1.58L309.25 1.06L311.6 0.64L313.95 0.33L316.3 0.12L318.64 0.01L320.96 0.01L323.28 0.1L325.59 0.28ZM196.76 204.21L194.33 204.28L191.84 204.41L189.28 204.59L186.68 204.83L184.03 205.15L181.35 205.53L178.63 206L175.89 206.55L173.13 207.18L170.36 207.91L167.59 208.75L164.82 209.68L162.06 210.72L159.32 211.88L156.6 213.16L153.91 214.56L151.27 216.09L148.66 217.76L146.11 219.56L143.61 221.51L141.18 223.61L138.82 225.87L136.54 228.29L134.34 230.87L132.24 233.62L130.23 236.55L128.33 239.65L126.55 242.95L124.88 246.43L123.34 250.11L121.93 253.99L120.67 258.08L119.55 262.38L118.58 266.9L117.77 271.63L117.13 276.6L116.67 281.79L116.39 287.22L116.29 292.9L116.47 447.46L116.56 453.12L116.85 458.54L117.31 463.73L117.95 468.68L118.76 473.41L119.72 477.92L120.84 482.21L122.11 486.29L123.52 490.17L125.06 493.85L126.73 497.33L128.51 500.62L130.41 503.73L132.42 506.65L134.52 509.41L136.72 511.99L139 514.41L141.36 516.67L143.79 518.77L146.28 520.72L148.84 522.53L151.44 524.2L154.09 525.74L156.78 527.15L159.5 528.43L162.24 529.59L165 530.64L167.77 531.58L170.54 532.41L173.31 533.15L176.06 533.79L178.81 534.34L181.52 534.81L184.21 535.2L186.86 535.52L189.46 535.76L192.01 535.95L194.51 536.07L196.94 536.14L199.3 536.17L440.85 536.17L444.41 536.11L447.9 535.94L451.31 535.67L454.64 535.28L457.9 534.78L461.07 534.17L464.18 533.45L467.2 532.62L470.15 531.68L473.03 530.62L475.82 529.46L478.54 528.18L481.19 526.8L483.75 525.3L486.25 523.69L488.66 521.97L491 520.14L493.26 518.2L495.45 516.15L497.55 513.99L499.59 511.72L501.54 509.33L503.42 506.84L505.23 504.23L506.95 501.52L508.6 498.69L510.18 495.75L511.67 492.7L513.1 489.54L514.44 486.27L515.71 482.89L516.9 479.4L518.02 475.79L519.05 472.08L520.02 468.25L520.9 464.32L521.71 460.27L522.45 456.11L523.1 451.84L523.68 447.46L523.68 292.9L523.66 290.37L523.6 287.77L523.48 285.1L523.31 282.36L523.08 279.57L522.79 276.74L522.43 273.86L522 270.95L521.48 268.02L520.89 265.06L520.21 262.1L519.43 259.13L518.56 256.16L517.58 253.21L516.5 250.27L515.31 247.36L514 244.49L512.57 241.65L511.02 238.86L509.33 236.12L507.51 233.45L505.55 230.85L503.44 228.32L501.19 225.88L498.77 223.52L496.21 221.27L493.47 219.13L490.57 217.09L487.49 215.18L484.24 213.39L480.8 211.74L477.18 210.24L473.36 208.88L469.35 207.68L465.13 206.64L460.71 205.78L456.07 205.1L451.22 204.6L446.15 204.29L440.85 204.19L199.12 204.19L196.76 204.21ZM77.64 293.95L76.12 294.53L74.62 295.16L73.14 295.82L71.68 296.53L70.23 297.27L68.81 298.04L67.41 298.86L66.03 299.71L64.67 300.6L63.34 301.52L62.03 302.47L60.75 303.46L59.48 304.49L58.25 305.54L57.04 306.63L55.85 307.75L54.7 308.9L53.57 310.08L52.46 311.29L51.39 312.53L50.34 313.8L49.33 315.09L48.34 316.42L47.39 317.77L46.46 319.14L45.57 320.55L44.71 321.98L43.88 323.43L43.09 324.9L42.33 326.4L41.6 327.93L40.91 329.47L40.25 331.04L39.63 332.63L39.05 334.24L38.5 335.86L37.99 337.51L37.52 339.18L37.07 340.99L36.71 342.81L36.42 344.64L36.21 346.49L36.07 348.36L36.02 350.24L36.04 352.13L36.14 354.04L36.32 355.97L36.58 357.91L36.92 359.86L37.34 361.83L37.83 363.82L38.4 365.82L39.05 367.83L39.78 369.86L40.59 371.91L41.47 373.97L42.43 376.05L43.47 378.14L44.59 380.24L45.79 382.36L47.07 384.5L48.42 386.65L49.86 388.81L51.37 390.99L52.96 393.19L54.62 395.4L56.37 397.62L58.19 399.87L60.1 402.12L62.08 404.39L64.14 406.68L66.27 408.98L68.49 411.29L70.78 413.62L73.15 415.97L75.6 418.33L78.13 420.71L80.74 423.1L80.74 292.9L79.18 293.4L77.64 293.95ZM560.54 421.1L562.52 420.37L564.47 419.58L566.39 418.72L568.27 417.8L570.11 416.82L571.92 415.78L573.69 414.68L575.42 413.52L577.11 412.31L578.76 411.04L580.36 409.72L581.93 408.34L583.44 406.92L584.92 405.45L586.35 403.93L587.73 402.36L589.06 400.75L590.35 399.1L591.58 397.4L592.77 395.66L593.9 393.88L594.98 392.07L596.01 390.21L596.98 388.33L597.9 386.4L598.76 384.45L599.56 382.46L600.31 380.44L600.99 378.4L601.62 376.33L602.18 374.23L602.68 372.1L603.12 369.96L603.5 367.79L603.81 365.6L604.05 363.39L604.23 361.16L604.34 358.92L604.38 356.66L604.34 354.41L604.23 352.16L604.05 349.94L603.81 347.73L603.5 345.54L603.12 343.37L602.68 341.22L602.18 339.1L601.62 337L600.99 334.93L600.31 332.88L599.56 330.87L598.76 328.88L597.9 326.92L596.98 325L596.01 323.11L594.98 321.26L593.9 319.44L592.77 317.67L591.58 315.93L590.35 314.23L589.06 312.58L587.73 310.97L586.35 309.4L584.92 307.88L583.44 306.41L581.93 304.98L580.36 303.61L578.76 302.29L577.11 301.02L575.42 299.81L573.69 298.65L571.92 297.55L570.11 296.51L568.27 295.53L566.39 294.61L564.47 293.75L562.52 292.95L560.54 292.23L558.52 291.56L558.52 421.76L560.54 421.1ZM317.41 39.3L316.15 39.49L314.92 39.74L313.7 40.06L312.51 40.45L311.35 40.9L310.22 41.41L309.12 41.98L308.05 42.61L307.02 43.3L306.02 44.04L305.07 44.83L304.15 45.68L303.27 46.57L302.44 47.51L301.65 48.49L300.91 49.52L300.22 50.59L299.57 51.7L298.98 52.84L298.45 54.02L297.97 55.23L297.55 56.47L297.19 57.74L296.89 59.04L296.66 60.37L296.48 61.71L296.38 63.08L296.35 64.47L296.38 65.86L296.48 67.23L296.66 68.58L296.89 69.9L297.19 71.2L297.55 72.47L297.97 73.72L298.45 74.93L298.98 76.11L299.57 77.25L300.22 78.36L300.91 79.42L301.65 80.45L302.44 81.43L303.27 82.37L304.15 83.27L305.07 84.11L306.02 84.9L307.02 85.65L308.05 86.33L309.12 86.96L310.22 87.54L311.35 88.05L312.51 88.5L313.7 88.89L314.92 89.21L316.15 89.46L317.41 89.64L318.69 89.75L319.99 89.79L321.28 89.75L322.56 89.64L323.82 89.46L325.06 89.21L326.27 88.89L327.46 88.5L328.62 88.05L329.75 87.54L330.85 86.96L331.92 86.33L332.95 85.65L333.95 84.9L334.91 84.11L335.83 83.27L336.7 82.37L337.54 81.43L338.32 80.45L339.07 79.42L339.76 78.36L340.4 77.25L340.99 76.11L341.52 74.93L342 73.72L342.42 72.47L342.78 71.2L343.08 69.9L343.32 68.58L343.49 67.23L343.59 65.86L343.63 64.47L343.59 63.08L343.49 61.71L343.32 60.37L343.08 59.04L342.78 57.74L342.42 56.47L342 55.23L341.52 54.02L340.99 52.84L340.4 51.7L339.76 50.59L339.07 49.52L338.32 48.49L337.54 47.51L336.7 46.57L335.83 45.68L334.91 44.83L333.95 44.04L332.95 43.3L331.92 42.61L330.85 41.98L329.75 41.41L328.62 40.9L327.46 40.45L326.27 40.06L325.06 39.74L323.82 39.49L322.56 39.3L321.28 39.19L319.99 39.16L318.69 39.19L317.41 39.3Z" id="c25ISNgnVd"></path><path d="M218.32 454.31C208.5 454.31 200.54 462.84 200.54 473.35C200.54 483.86 208.5 492.39 218.32 492.39C238.65 492.39 401.32 492.39 421.66 492.39C431.47 492.39 439.43 483.86 439.43 473.35C439.43 462.84 431.47 454.31 421.66 454.31C380.99 454.31 238.65 454.31 218.32 454.31Z" id="a2aojPozy"></path></defs><g><g><g><use xlink:href="#kDHHn0Djm" opacity="1" fill="#000000" fill-opacity="1"></use><g><use xlink:href="#kDHHn0Djm" opacity="1" fill-opacity="0" stroke="#000000" stroke-width="1" stroke-opacity="0"></use></g></g><g><use xlink:href="#eMuHECvMB" opacity="1" fill="#000000" fill-opacity="1"></use><g><use xlink:href="#eMuHECvMB" opacity="1" fill-opacity="0" stroke="#000000" stroke-width="1" stroke-opacity="0"></use></g></g><g><use xlink:href="#c25ISNgnVd" opacity="1" fill="#000000" fill-opacity="1"></use><g><use xlink:href="#c25ISNgnVd" opacity="1" fill-opacity="0" stroke="#000000" stroke-width="1" stroke-opacity="0"></use></g></g><g><use xlink:href="#a2aojPozy" opacity="1" fill="#000000" fill-opacity="1"></use><g><use xlink:href="#a2aojPozy" opacity="1" fill-opacity="0" stroke="#000000" stroke-width="1" stroke-opacity="0"></use></g></g></g></g></svg>