<?xml version="1.0" encoding="utf-8"?>
<!-- Generator: Adobe Illustrator 21.0.0, SVG Export Plug-In . SVG Version: 6.00 Build 0)  -->
<svg version="1.1" id="Layer_1" xmlns="http://www.w3.org/2000/svg" xmlns:xlink="http://www.w3.org/1999/xlink" x="0px" y="0px"
	 viewBox="0 0 44.9 9.8" style="enable-background:new 0 0 44.9 9.8;" xml:space="preserve">
<style type="text/css">
	.st0{fill:#FFFFFF;}
</style>
<g>
	<path class="st0" d="M3.9,9.3H0.3V7.7h0.5V4.9H0.3V3.3h2.3L2.8,4C2.9,4,2.9,3.9,3,3.8c0.1-0.1,0.2-0.2,0.3-0.3
		c0.1-0.1,0.3-0.2,0.4-0.2C4,3.2,4.1,3.2,4.3,3.2c0.3,0,0.6,0,0.8,0.1c0.2,0.1,0.4,0.1,0.5,0.2c0.1,0.1,0.2,0.2,0.3,0.3
		C6,3.9,6.1,4,6.1,4c0.2-0.2,0.4-0.4,0.7-0.6s0.6-0.3,1.1-0.3c0.5,0,0.9,0.1,1.2,0.2c0.3,0.2,0.5,0.4,0.7,0.6C9.9,4.3,10,4.6,10,5
		c0.1,0.3,0.1,0.7,0.1,1.1v1.7h0.6v1.6h-3V6.4c0-0.1,0-0.3,0-0.5c0-0.2,0-0.3,0-0.5S7.6,5.1,7.5,5S7.4,4.9,7.2,4.9
		C7,4.9,6.8,5,6.7,5.1C6.6,5.3,6.6,5.5,6.6,5.8v1.9h0.7v1.6H4.2V6.3c0-0.5,0-0.8-0.1-1c0-0.2-0.2-0.3-0.4-0.3
		c-0.2,0-0.3,0.1-0.4,0.2S3.1,5.4,3.1,5.6v2.1h0.7V9.3z"/>
	<path class="st0" d="M11.3,3.8c0.1-0.1,0.3-0.2,0.5-0.3c0.2-0.1,0.4-0.2,0.6-0.3c0.2-0.1,0.5-0.2,0.7-0.2C13.4,3,13.7,3,13.9,3
		c0.4,0,0.7,0,1.1,0.1c0.4,0.1,0.7,0.2,1,0.4s0.6,0.4,0.8,0.8c0.2,0.3,0.3,0.7,0.3,1.2v2.3h0.7v1.5h-2.6l-0.3-0.5
		c-0.1,0.2-0.2,0.3-0.4,0.4c-0.1,0.1-0.3,0.2-0.4,0.2c-0.1,0.1-0.3,0.1-0.4,0.1s-0.3,0-0.4,0c-0.3,0-0.6,0-0.9-0.1
		c-0.3-0.1-0.5-0.2-0.8-0.4c-0.2-0.2-0.4-0.4-0.5-0.6c-0.1-0.3-0.2-0.6-0.2-0.9c0-0.3,0.1-0.6,0.2-0.9s0.3-0.5,0.5-0.7
		c0.2-0.2,0.5-0.3,0.8-0.4c0.3-0.1,0.6-0.2,1-0.2c0.2,0,0.3,0,0.5,0.1c0.1,0,0.3,0.1,0.4,0.1c0.1,0,0.2,0.1,0.2,0.1
		c0.1,0,0.1,0.1,0.1,0.1V5.3c0-0.3-0.1-0.5-0.3-0.5s-0.5-0.1-0.8-0.1c-0.4,0-0.7,0.1-1,0.2c-0.3,0.1-0.6,0.2-0.8,0.4L11.3,3.8z
		 M14,8c0.2,0,0.3,0,0.5-0.1c0.1-0.1,0.2-0.2,0.3-0.3V7.1c0,0,0,0-0.1-0.1c0,0-0.1-0.1-0.1-0.1c-0.1,0-0.1-0.1-0.2-0.1
		c-0.1,0-0.2,0-0.3,0c-0.2,0-0.4,0.1-0.5,0.2s-0.2,0.3-0.2,0.5c0,0.2,0.1,0.3,0.2,0.4C13.7,7.9,13.8,8,14,8z"/>
	<path class="st0" d="M21.8,9.3h-3.4V7.7h0.5V4.9h-0.5V3.3h2.3L21,4.1c0.1-0.1,0.2-0.3,0.3-0.4c0.1-0.1,0.2-0.2,0.3-0.3
		c0.1-0.1,0.3-0.2,0.5-0.2C22.3,3,22.6,3,22.9,3v2.2c-0.5,0-1,0.1-1.3,0.3c-0.3,0.2-0.4,0.5-0.4,1.1v1.2h0.6V9.3z"/>
	<path class="st0" d="M23.5,9.3V7.8H24V1.9h-0.5V0.3h2.8v5.4l1.4-0.8h-0.9V3.3h3.4v1.6h-0.9l-0.8,0.5l1.6,2.3h0.6v1.6h-3.6V7.7h0.5
		l-0.9-1.3l-0.4,0.3v1h0.4v1.6H23.5z"/>
	<path class="st0" d="M37.2,8.5c-0.4,0.4-0.9,0.7-1.4,0.8c-0.5,0.2-1.1,0.2-1.7,0.2c-0.4,0-0.8-0.1-1.1-0.2c-0.4-0.1-0.7-0.3-1-0.6
		s-0.5-0.6-0.7-1C31.1,7.4,31,6.9,31,6.3c0-0.5,0.1-0.9,0.3-1.3c0.2-0.4,0.4-0.7,0.7-1s0.6-0.5,1-0.6c0.4-0.1,0.8-0.2,1.3-0.2
		c0.4,0,0.7,0,1,0.1c0.3,0.1,0.6,0.2,0.8,0.4s0.5,0.3,0.6,0.6s0.3,0.4,0.4,0.7c0,0.1,0.1,0.2,0.1,0.4c0,0.2,0.1,0.3,0.1,0.5
		c0,0.2,0,0.4,0,0.6c0,0.2-0.1,0.4-0.1,0.5h-3.8c0,0.1,0,0.2,0.1,0.3c0,0.1,0.1,0.2,0.2,0.3s0.2,0.2,0.4,0.3
		c0.2,0.1,0.4,0.1,0.6,0.1c0.1,0,0.2,0,0.3,0c0.1,0,0.3,0,0.4-0.1c0.1,0,0.3-0.1,0.5-0.2s0.3-0.2,0.5-0.3L37.2,8.5z M34.3,4.8
		c-0.2,0-0.3,0-0.5,0.1c-0.1,0.1-0.2,0.2-0.3,0.3c-0.1,0.1-0.1,0.2-0.1,0.3c0,0.1,0,0.2-0.1,0.3h1.8c0-0.1,0-0.2,0-0.3
		c0-0.1-0.1-0.2-0.1-0.3c-0.1-0.1-0.1-0.2-0.3-0.2C34.6,4.8,34.5,4.8,34.3,4.8z"/>
	<path class="st0" d="M37.6,3.3h0.6V2.2l2.2-0.7v1.8h1.1v1.6h-1.1V7c0,0.1,0,0.2,0,0.3c0,0.1,0,0.2,0,0.3c0,0.1,0.1,0.2,0.1,0.2
		S40.7,8,40.8,8c0.1,0,0.2,0,0.4-0.1c0.2,0,0.3-0.1,0.4-0.1v1.5c-0.1,0-0.2,0.1-0.3,0.1c-0.1,0-0.3,0-0.4,0.1c-0.1,0-0.3,0-0.4,0
		c-0.1,0-0.2,0-0.3,0c-0.4,0-0.8-0.1-1-0.2c-0.3-0.1-0.4-0.3-0.6-0.5c-0.1-0.2-0.2-0.5-0.2-0.8c0-0.3-0.1-0.7-0.1-1V4.9h-0.6V3.3z"
		/>
	<path class="st0" d="M42,8.1c0-0.2,0-0.3,0.1-0.5c0.1-0.2,0.1-0.3,0.3-0.4c0.1-0.1,0.3-0.2,0.4-0.3c0.2-0.1,0.4-0.1,0.6-0.1
		s0.4,0,0.6,0.1c0.2,0.1,0.3,0.2,0.4,0.3s0.2,0.3,0.3,0.4c0.1,0.2,0.1,0.3,0.1,0.5c0,0.4-0.1,0.7-0.3,0.9c-0.2,0.3-0.6,0.4-1,0.4
		c-0.2,0-0.4,0-0.5-0.1c-0.2-0.1-0.3-0.2-0.4-0.3c-0.1-0.1-0.2-0.3-0.3-0.4C42,8.4,42,8.2,42,8.1z"/>
</g>
</svg>
